<?xml version="1.0" standalone="no"?>
<!DOCTYPE svg PUBLIC "-//W3C//DTD SVG 20010904//EN"
 "http://www.w3.org/TR/2001/REC-SVG-20010904/DTD/svg10.dtd">
<svg version="1.0" xmlns="http://www.w3.org/2000/svg"
 width="640.000000pt" height="640.000000pt" viewBox="0 0 640.000000 640.000000"
 preserveAspectRatio="xMidYMid meet">
<metadata>
Created by potrace 1.16, written by Peter Selinger 2001-2019
</metadata>
<g transform="translate(0.000000,640.000000) scale(0.100000,-0.100000)"
fill="#000000" stroke="none">
<path d="M3739 6257 c-529 -398 -1225 -682 -1914 -781 -145 -21 -414 -46 -492
-46 l-63 0 0 -837 c0 -763 -10 -2124 -15 -2131 -6 -8 -69 142 -91 217 -22 75
-27 115 -34 306 -4 121 -13 235 -19 254 -33 106 -169 152 -286 98 -103 -48
-200 -192 -232 -342 -18 -83 -12 -192 17 -314 11 -45 20 -86 20 -90 0 -4 -28
-4 -62 1 -194 29 -344 -24 -427 -148 -46 -70 -56 -136 -36 -238 l17 -84 -35
-45 c-75 -98 -86 -221 -32 -347 15 -36 27 -80 26 -97 -9 -190 -6 -227 22 -285
101 -206 396 -358 696 -358 103 0 123 -15 42 -31 -94 -18 -95 -51 -4 -149 122
-132 327 -242 543 -289 87 -20 89 -21 55 -38 -43 -22 -65 -44 -65 -63 0 -46
158 -143 285 -175 104 -26 327 -40 461 -27 l119 11 35 -25 c19 -14 82 -66 140
-115 l105 -89 140 1 140 0 -29 22 c-163 123 -178 138 -172 170 17 86 224 537
261 567 6 5 26 5 51 -1 34 -9 45 -19 74 -67 76 -129 225 -288 343 -365 104
-69 164 -92 237 -91 85 2 277 46 413 95 220 78 494 234 706 402 46 37 86 65
88 63 2 -2 -8 -43 -23 -92 -22 -75 -27 -114 -31 -244 -6 -172 4 -257 42 -380
l26 -80 174 0 174 0 93 77 c124 104 362 336 458 448 352 410 555 819 659 1330
l29 140 3 1715 4 1715 -60 3 c-499 21 -1048 139 -1504 324 -326 132 -706 345
-920 517 -35 28 -65 51 -66 51 -1 0 -40 -28 -86 -63z m160 -203 c565 -411
1363 -697 2163 -775 70 -7 132 -15 138 -19 16 -10 24 -1734 11 -2550 -10 -717
-10 -716 -66 -950 -47 -197 -136 -434 -222 -590 -20 -36 -37 -66 -38 -68 -2
-2 -31 17 -64 42 -84 62 -150 90 -258 114 -82 18 -102 26 -175 78 -45 33 -110
87 -146 120 l-64 62 4 113 c5 136 10 148 131 308 242 319 371 662 396 1051 11
180 2 334 -38 606 -59 405 -133 615 -305 869 -78 115 -263 300 -386 388 -233
164 -545 276 -855 307 -257 25 -360 -29 -410 -215 -10 -36 -21 -65 -25 -65 -3
0 -58 23 -121 52 -156 71 -194 71 -339 3 -263 -124 -437 -241 -606 -410 -216
-215 -329 -422 -410 -750 -34 -139 -41 -249 -20 -311 22 -67 86 -170 141 -232
l47 -52 -12 -83 c-13 -83 -9 -382 4 -423 6 -15 2 -23 -18 -32 -45 -20 -105
-82 -122 -127 -25 -67 -16 -167 22 -241 l30 -59 -191 0 c-188 0 -191 0 -247
-28 -111 -54 -171 -164 -149 -269 15 -66 40 -106 103 -163 139 -125 335 -155
583 -90 l99 26 63 -27 c48 -20 65 -32 69 -51 10 -40 -3 -118 -32 -185 -52
-124 -73 -194 -74 -245 0 -66 -5 -66 -138 -17 -133 50 -294 133 -399 207 -150
106 -368 331 -460 475 -71 110 -68 29 -68 1817 l0 1600 55 7 c30 4 125 14 210
22 675 67 1389 326 1970 715 74 50 140 91 145 91 6 0 39 -21 74 -46z m411
-1068 c213 -49 402 -129 562 -237 135 -91 295 -256 397 -407 46 -68 81 -126
78 -128 -2 -3 -24 18 -47 46 -107 128 -342 291 -540 375 -217 91 -361 121
-655 136 -241 12 -281 22 -271 67 24 99 38 132 68 158 l33 27 135 -6 c89 -4
171 -14 240 -31z m-798 -185 c103 -43 313 -159 447 -248 506 -333 875 -732
1107 -1197 70 -141 86 -186 65 -186 -20 0 -122 -93 -152 -140 l-32 -50 -146
143 c-175 170 -292 266 -463 380 -318 213 -780 397 -1164 465 l-99 17 2 31 c4
48 68 263 114 382 92 235 206 449 234 438 7 -2 46 -19 87 -35z m-320 -128
c-93 -201 -166 -407 -206 -583 l-23 -104 -83 -18 c-172 -38 -342 -108 -463
-191 -37 -26 -69 -47 -71 -47 -15 0 87 270 144 378 86 165 289 389 450 497
101 68 294 184 299 180 2 -2 -19 -52 -47 -112z m1129 -64 c522 -87 947 -408
1123 -850 81 -202 129 -455 124 -658 l-3 -125 -38 61 c-46 75 -83 108 -164
145 l-63 28 -76 153 c-249 497 -537 834 -1037 1215 l-68 52 39 0 c22 0 95 -9
163 -21z m-1077 -803 c104 -24 338 -92 399 -115 l28 -11 -55 -55 c-78 -77
-117 -161 -85 -180 5 -4 37 14 70 40 75 59 163 103 220 111 40 6 56 1 150 -46
135 -68 279 -156 301 -183 10 -12 43 -70 73 -129 30 -59 60 -110 67 -114 8 -5
9 16 6 74 l-5 81 28 -20 c56 -40 218 -190 326 -302 l112 -117 3 -162 c2 -90 1
-178 -2 -197 l-5 -34 -28 41 c-51 79 -154 132 -253 132 -53 0 -96 -18 -92 -39
3 -16 12 -19 110 -46 72 -19 148 -79 177 -138 18 -37 21 -59 19 -124 l-3 -78
-28 57 c-55 112 -166 179 -308 186 -128 6 -222 -26 -389 -133 -83 -54 -170
-98 -170 -88 0 15 87 115 134 153 70 58 141 95 246 130 52 17 102 33 110 36
23 8 -26 32 -83 40 -46 6 -48 8 -42 33 55 212 43 387 -40 557 -54 111 -124
181 -213 214 -83 32 -196 25 -272 -16 -120 -64 -223 -209 -271 -380 -30 -104
-32 -296 -5 -394 50 -183 157 -311 294 -351 30 -9 42 -17 40 -28 -3 -13 -17
-16 -74 -15 -97 2 -161 36 -333 176 -135 111 -264 165 -370 155 -31 -3 -65 -9
-75 -13 -16 -6 -18 -4 -12 12 37 94 47 372 21 549 -41 269 -114 400 -235 420
-51 9 -120 -22 -177 -78 -24 -22 -43 -38 -43 -33 0 27 36 138 60 186 91 180
219 183 332 7 17 -26 36 -46 42 -44 6 2 12 22 14 46 4 52 -31 132 -83 190 -21
23 -36 44 -33 46 31 32 248 27 402 -9z m-842 -292 l-28 -89 -17 32 c-9 18 -17
37 -17 43 0 12 81 112 86 107 2 -2 -9 -44 -24 -93z m328 -149 c37 -19 83 -113
110 -226 26 -108 26 -144 3 -134 -46 20 -79 17 -112 -10 -28 -24 -78 -102 -69
-110 2 -2 20 -10 40 -18 20 -8 44 -28 54 -42 18 -27 17 -28 -5 -46 -27 -22
-44 -24 -73 -8 -18 10 -24 8 -36 -7 -33 -45 10 -280 64 -344 l26 -30 -33 0
c-26 0 -42 10 -80 49 -79 82 -119 220 -119 412 0 247 70 467 165 514 37 18 30
18 65 0z m1231 -85 c82 -23 168 -124 211 -247 31 -91 33 -292 4 -393 -11 -36
-22 -68 -26 -73 -3 -4 -4 30 -2 76 8 153 -42 280 -129 325 -40 20 -52 22 -86
13 -34 -9 -114 -75 -102 -84 2 -2 16 -10 30 -19 30 -19 59 -74 59 -112 0 -24
-3 -26 -44 -26 -28 0 -52 7 -69 20 -14 11 -28 17 -31 12 -13 -22 -17 -143 -6
-202 15 -86 40 -139 83 -181 28 -27 33 -38 26 -52 -22 -38 -132 -5 -197 60
-80 80 -122 203 -122 359 0 252 111 460 279 520 44 16 75 17 122 4z m-2985
-81 c13 -26 17 -71 19 -233 4 -283 22 -356 138 -576 110 -209 147 -289 164
-354 22 -84 21 -259 -1 -370 -22 -112 -13 -127 43 -69 21 23 47 59 57 82 11
22 22 39 25 38 3 -1 41 -45 85 -97 241 -293 519 -488 849 -600 46 -16 110 -34
142 -40 49 -10 67 -21 118 -69 33 -31 71 -64 85 -72 l25 -17 -23 -38 c-13 -22
-55 -104 -95 -183 -82 -167 -79 -164 -264 -206 -195 -44 -427 -54 -573 -24
-69 14 -160 41 -160 49 0 3 26 18 58 34 110 53 206 126 188 143 -3 3 -60 9
-128 15 -153 11 -340 48 -451 88 -87 32 -248 118 -254 137 -2 6 34 13 99 17
190 12 297 33 283 56 -3 5 -42 23 -88 40 -98 38 -267 111 -267 116 0 2 22 24
48 48 27 25 61 68 75 95 27 48 47 141 32 141 -4 0 -45 -35 -90 -79 -62 -59
-96 -84 -139 -100 -202 -75 -438 -33 -632 113 -73 54 -109 104 -124 169 -20
91 9 146 95 183 82 35 316 15 415 -36 70 -36 89 -106 44 -159 -42 -50 -59 -55
-221 -61 -88 -3 -157 -10 -163 -16 -8 -7 -5 -18 10 -37 48 -60 241 -96 351
-64 67 20 130 72 159 132 19 39 21 59 18 136 -2 69 0 92 11 98 21 14 57 -4
113 -54 28 -25 54 -42 59 -39 25 15 -2 91 -52 149 -32 36 -34 43 -40 134 -4
60 -13 110 -24 132 -17 35 -17 36 9 74 55 80 59 187 12 288 -28 59 -80 111
-170 171 l-51 34 -35 143 c-25 104 -35 165 -34 219 2 138 59 268 141 321 61
38 88 38 109 -2z m4374 -173 c82 -54 133 -205 113 -340 -18 -124 -82 -234
-157 -270 -45 -21 -125 -21 -156 1 -119 83 -161 314 -86 478 66 145 183 199
286 131z m-2903 -563 c38 -78 104 -147 169 -179 72 -35 138 -30 222 17 144 81
163 89 221 89 78 0 133 -29 271 -139 283 -226 486 -256 741 -107 41 24 110 64
153 89 92 53 163 71 257 65 93 -7 133 -33 170 -112 35 -74 38 -146 10 -228
-36 -105 -83 -163 -253 -310 -72 -62 -197 -171 -277 -242 -275 -243 -421 -352
-569 -426 -317 -158 -702 -138 -871 45 -46 49 -66 110 -57 169 4 22 27 92 53
155 30 77 47 137 51 179 4 53 7 62 21 57 9 -4 28 -12 44 -17 15 -5 27 -16 27
-23 0 -39 -25 -133 -61 -224 -45 -116 -47 -157 -11 -209 50 -70 195 -115 367
-115 298 0 549 136 906 493 178 178 263 282 356 435 l51 85 46 -52 45 -52 11
30 c25 65 -20 158 -92 193 -72 34 -174 24 -234 -24 -38 -30 -24 -45 44 -45
l57 -1 -30 -25 c-115 -96 -340 -223 -523 -295 -387 -151 -694 -149 -1047 6
-332 146 -602 208 -696 159 -50 -26 -35 -46 51 -67 243 -57 261 -71 83 -65
-103 3 -125 7 -174 31 -31 15 -75 47 -98 72 -35 38 -41 51 -41 89 0 38 5 48
35 74 45 40 77 45 253 39 115 -3 168 -10 243 -30 115 -31 287 -97 439 -167 61
-29 114 -49 117 -46 14 13 -25 61 -89 112 -67 52 -267 160 -340 184 -21 6 -38
13 -38 16 0 2 9 18 20 36 29 48 27 118 -5 152 -38 41 -55 35 -55 -20 0 -42 -2
-45 -17 -33 -25 21 -53 90 -53 133 0 42 33 106 56 106 7 0 26 -25 41 -57z
m-1804 -33 c98 -30 220 -118 253 -181 29 -57 6 -159 -36 -159 -11 0 -45 13
-77 29 -136 68 -282 95 -431 79 -77 -8 -96 -8 -104 3 -5 8 -7 48 -6 90 2 60 7
82 23 99 23 25 67 50 110 61 46 13 198 0 268 -21z m4443 -135 c70 -43 188 -54
247 -23 25 13 21 -1 -19 -67 -144 -240 -356 -457 -606 -619 -87 -56 -355 -192
-363 -184 -3 2 42 42 98 88 234 193 335 316 451 547 28 56 106 284 106 310 0
3 10 -2 23 -11 12 -9 40 -27 63 -41z m-4471 -257 c89 -25 199 -82 230 -120 36
-43 42 -92 16 -144 -25 -54 -37 -55 -171 -17 -82 23 -114 27 -230 27 -103 0
-145 -4 -179 -17 -76 -29 -85 -23 -117 80 -22 71 16 152 90 190 67 35 242 36
361 1z m4415 -477 l0 -69 -57 -50 c-252 -216 -744 -426 -1073 -457 l-65 -6 27
21 c14 11 68 53 118 94 88 69 97 74 207 104 277 77 565 221 778 391 28 21 53
40 58 40 4 1 7 -30 7 -68z m-1190 -52 c16 -6 30 -15 30 -20 0 -14 -144 -133
-242 -200 -101 -69 -243 -138 -338 -164 -36 -10 -102 -18 -148 -19 -78 -1 -85
1 -104 24 -25 31 -19 82 22 165 57 116 138 175 255 183 l69 5 -19 -29 c-54
-80 -93 -184 -68 -184 3 0 47 39 97 88 96 92 159 132 247 157 57 15 144 13
199 -6z m1334 -193 c97 -69 98 -70 20 -96 -138 -44 -265 -121 -554 -337 -254
-189 -328 -236 -495 -318 -177 -86 -326 -138 -486 -167 -102 -19 -120 -20
-149 -8 -53 22 -170 102 -232 159 -51 46 -158 171 -158 183 0 3 42 8 93 11
108 8 231 36 319 73 56 23 71 26 134 20 162 -15 421 26 656 104 269 89 441
180 732 386 26 19 50 34 53 34 3 0 33 -20 67 -44z m379 -201 c80 -17 172 -63
217 -110 l33 -34 -58 -86 c-80 -118 -240 -308 -375 -443 -137 -138 -425 -382
-450 -382 -11 0 -27 44 -49 130 -53 211 -29 429 70 620 70 136 167 224 304
276 116 43 203 52 308 29z"/>
<path d="M3503 4670 c-12 -5 -29 -20 -37 -33 -34 -51 -196 -449 -211 -516 -8
-38 40 -91 83 -91 50 0 67 29 164 270 70 175 108 281 108 301 0 23 -39 66 -65
72 -11 3 -30 2 -42 -3z"/>
<path d="M3787 4498 c-9 -7 -29 -40 -45 -73 -45 -90 -162 -391 -162 -413 0
-21 52 -72 73 -72 36 1 60 16 77 50 27 53 96 226 137 344 30 87 32 103 22 128
-19 45 -67 62 -102 36z"/>
<path d="M4063 4288 c-22 -23 -107 -220 -148 -339 -20 -57 -21 -68 -9 -91 26
-50 95 -54 128 -6 20 28 134 313 142 356 9 45 -2 77 -31 90 -38 17 -59 15 -82
-10z"/>
<path d="M2905 4518 c-15 -11 -36 -42 -47 -67 -52 -119 -108 -304 -108 -353 0
-57 68 -89 104 -49 15 17 146 400 146 429 0 15 -44 62 -58 62 -5 0 -22 -10
-37 -22z"/>
<path d="M2617 4253 c-34 -38 -90 -206 -85 -255 4 -42 34 -62 68 -45 44 22
113 230 94 284 -12 34 -52 43 -77 16z"/>
<path d="M3173 2200 c-48 -29 -82 -107 -54 -124 5 -4 32 -1 60 5 58 12 81 37
81 86 0 27 -5 35 -26 43 -31 12 -23 13 -61 -10z"/>
</g>
</svg>
