<svg version="1.2" xmlns="http://www.w3.org/2000/svg" viewBox="0 0 648 725" width="1200" height="1343">
	<style>
		.s0 { fill: #000000; stroke: #000000; stroke-width: 1.5; stroke-linejoin: round; }
	</style>
	<g>
		<path class="s0" d="M 378.5,15.3 M 393.6,33.3 M 427.5,140.6 M 353.1,160.0 M 326.40000000000003,169.2 M 428.0,179.1 M 316.7,259.5 M 244.89999999999998,288.7 M 276.9,306.4 M 98.29999999999998,321.79999999999995 M 540.0,339.49999999999994 M 247.5,396.49999999999994 M 65.19999999999999,400.99999999999994 M 511.2,412.3999999999999 M 58.39999999999998,439.49999999999994 M 503.9,502.29999999999995 M 526.3,515.5 M 565.0999999999999,534.8 M 297.7999999999999,568.6999999999999 M 249.9999999999999,620.5999999999999"/>
		<path class="s0" d="m352.3 177.2c-3.2 3.5-22.3 50.4-22.3 54.8 0 2.6 4 6.8 7.1 7.5 4.9 1.2 7-2.4 17.4-28.3 5.3-13.4 9.9-25.9 10.2-27.7 1.1-6.8-7.8-11.3-12.4-6.3z"/>
		<path class="s0" d="m383.7 193.1c-0.9 0.6-3.1 4-4.8 7.7-4.8 10.6-15.9 38.7-15.9 40.4 0 3.1 4 6.8 7.3 6.8 3.8 0 5-0.7 6.7-4 3.8-7.2 17-41.9 17-44.7 0-5.7-5.5-9-10.3-6.2z"/>
		<path class="s0" d="m412.4 213.5c-1.2 0.8-2.7 2.9-3.4 4.7-0.8 1.8-4.2 10.2-7.7 18.6-3.5 8.4-6.3 16.3-6.3 17.6 0 3.2 4 6.6 7.8 6.6 4.2 0 5.1-1.5 13.4-22.3 8.1-20.5 8.4-22.8 3.1-25.6-2.9-1.5-4.4-1.4-6.9 0.4z"/>
		<path class="s0" d="m295.3 190c-2.5 1-4.1 3.8-7.9 13.6-4.1 10.7-7.3 21.4-8 26.7-0.8 5.7 1.2 8.7 5.7 8.7 3.9 0 5.2-2.4 9.5-16.8 1.9-6.6 4.6-14.9 6-18.3 3-7.9 3.1-11.3 0.2-13.3-2.5-1.8-2.5-1.8-5.5-0.6z"/>
		<path class="s0" d="m264.5 218.4c-1.7 2.5-6.8 16.8-7.9 22.2-0.5 2.3-0.2 3.7 1.3 5.5 1.6 2 2.3 2.2 4.7 1.4 2.5-0.9 3.3-2.3 6.1-10 3.9-11.1 4.9-16.6 3.4-19.4-1.6-2.9-5.6-2.7-7.6 0.3z"/>
		<g transform="translate(0, 5) translate(379.6, 341.1) scale(1.1, 0.7) translate(-379.6, -341.1)">
			<path class="s0" d="m397 309.9c-11.5 3.8-22 13.1-34 30.1-4.1 5.8-8.7 12.1-10.3 14-3.6 4.3-9.4 8-12.5 8-3.7 0-6.9-4-7.7-9.8-0.8-5.8-2.2-7.4-4.1-4.8-2.1 2.9-2.7 9.3-1.4 14.7 1.5 6.4 5.9 10 12.9 10.7 4.1 0.4 5.9-0.1 11.2-2.9 6.8-3.7 12.8-10.2 22.4-24.4 16-23.8 33.4-31.4 46.1-20.2 2 1.7 5.4 5.5 7.6 8.4 5.6 7.6 7.3 5.8 4.3-4.4-2.1-7-7.6-13.8-13.7-16.9-5.4-2.7-16.2-4-20.8-2.5z"/>
		</g>
		<g transform="translate(0, 10) translate(387.9, 378.3) scale(0.9, -0.8) translate(-387.9, -378.3)">
			<path class="s0" d="m390.3 359.1c-11.2 1.1-20.4 7.1-31.1 20.3-8.8 10.8-9.9 13.7-6.5 17.1 2.3 2.3 6.7 1.5 12.8-2.4 2.7-1.7 8.5-4.5 13-6.3 7-2.8 9.2-3.2 17.5-3.1 7.6 0 11.2 0.5 17.9 2.7 8.1 2.7 8.5 2.7 9.8 1 1.8-2.4 1.6-3.7-0.8-6.8-2.9-3.7-10.8-7.5-19.2-9.2-7.8-1.7-17.2-0.8-24.7 2.2-2.3 0.9-4.3 1.4-4.6 1.1-1.7-1.7 16.4-12.7 21-12.7 2.2 0 5.6-1.8 5.6-2.9 0-1.3-3.9-1.7-10.7-1z"/>
		</g>
		<path class="s0" d="m320.2 426.5c-3.3 2.7-5.7 7.7-4.9 9.9 0.4 1 1.5 1.2 4.9 0.5 2.4-0.4 4.6-0.8 4.9-0.9 0.3 0 1.5-0.9 2.7-2 2.8-2.6 2.9-7.5 0.3-9-3-1.5-4.7-1.2-7.9 1.5z"/>
	</g>
</svg>