<?xml version="1.0" standalone="no"?>
<!DOCTYPE svg PUBLIC "-//W3C//DTD SVG 20010904//EN"
 "http://www.w3.org/TR/2001/REC-SVG-20010904/DTD/svg10.dtd">
<svg version="1.0" xmlns="http://www.w3.org/2000/svg"
 width="640.000000pt" height="640.000000pt" viewBox="0 0 640.000000 640.000000"
 preserveAspectRatio="xMidYMid meet">
<metadata>
Created by potrace 1.16, written by Peter Selinger 2001-2019
</metadata>
<g transform="translate(0.000000,640.000000) scale(0.100000,-0.100000)"
fill="#000000" stroke="none">
<path d="M3759 6271 c-544 -410 -1234 -694 -1934 -795 -136 -20 -420 -46 -497
-46 l-58 0 0 -712 c0 -1226 -12 -2260 -25 -2240 -19 27 -72 162 -90 227 -11
41 -19 128 -25 280 -10 274 -21 309 -112 356 -160 82 -370 -89 -425 -346 -18
-83 -12 -192 17 -314 11 -45 20 -86 20 -90 0 -4 -28 -4 -62 1 -194 29 -344
-24 -427 -148 -46 -70 -56 -136 -36 -239 l17 -84 -30 -38 c-86 -107 -94 -266
-20 -393 19 -32 19 -40 8 -102 -26 -138 5 -248 102 -353 134 -147 380 -245
617 -245 103 0 123 -15 42 -31 -94 -18 -95 -51 -4 -149 122 -132 327 -242 543
-289 87 -20 89 -21 55 -38 -43 -22 -65 -44 -65 -63 0 -46 158 -143 285 -175
105 -27 325 -40 460 -27 l120 11 35 -25 c19 -14 82 -66 140 -115 l105 -89 140
1 140 0 -29 22 c-172 131 -178 138 -172 170 19 95 177 436 269 580 l44 69 42
-88 c54 -114 119 -200 228 -305 95 -91 169 -144 261 -187 73 -35 143 -34 307
3 311 70 640 235 934 468 46 37 86 65 88 63 2 -2 -8 -43 -23 -92 -23 -76 -27
-113 -32 -251 -5 -176 3 -246 44 -374 l25 -79 174 0 174 0 93 77 c123 103 361
336 458 448 349 406 555 820 659 1330 l29 140 3 1715 4 1715 -45 2 c-822 42
-1524 256 -2180 664 -69 42 -166 109 -216 147 -50 38 -95 72 -101 75 -6 4 -39
-15 -74 -42z m140 -217 c573 -417 1410 -712 2207 -780 45 -3 87 -10 93 -14 9
-5 13 -283 15 -1096 4 -1381 -4 -2084 -27 -2209 -41 -223 -106 -440 -188 -627
-32 -74 -101 -209 -114 -226 -2 -2 -31 17 -64 42 -84 62 -150 90 -258 114 -82
18 -102 26 -175 78 -45 33 -110 87 -146 120 l-64 62 4 113 c5 135 11 150 127
303 245 322 374 663 400 1056 12 179 2 328 -38 606 -59 405 -133 615 -305 869
-78 115 -263 300 -386 388 -267 188 -642 310 -957 310 -110 1 -126 -2 -170
-24 -63 -33 -108 -94 -134 -182 -12 -40 -23 -74 -25 -76 -2 -2 -56 20 -121 49
-175 79 -192 78 -404 -27 -258 -127 -416 -239 -576 -406 -189 -198 -303 -415
-379 -722 -34 -139 -41 -249 -20 -311 22 -67 86 -170 141 -232 l47 -52 -12
-83 c-13 -83 -9 -378 5 -423 5 -15 0 -23 -19 -32 -45 -20 -105 -83 -122 -128
-25 -65 -15 -169 23 -242 l29 -57 -191 0 c-188 0 -191 0 -247 -28 -111 -54
-171 -164 -149 -269 15 -66 40 -106 103 -163 91 -82 213 -125 356 -125 57 0
63 -2 57 -17 -20 -53 -26 -116 -16 -163 15 -69 32 -100 80 -143 106 -96 282
-144 566 -156 l160 -6 -60 -41 -60 -41 -90 9 c-335 33 -661 165 -911 369 -87
71 -242 233 -317 331 -135 178 -127 54 -127 1938 0 997 3 1551 10 1555 5 3 85
12 177 20 713 60 1450 320 2053 724 74 50 140 91 145 91 6 0 39 -21 74 -46z
m411 -1068 c418 -97 725 -301 950 -633 95 -139 113 -180 41 -94 -96 114 -290
256 -466 341 -238 115 -413 156 -725 171 -146 7 -226 15 -248 25 -31 13 -33
17 -27 47 15 68 38 123 63 151 l27 28 140 -5 c96 -4 173 -14 245 -31z m-789
-190 c367 -162 810 -481 1091 -787 182 -198 332 -412 442 -629 74 -145 95
-202 77 -208 -29 -10 -123 -97 -152 -142 l-32 -50 -146 143 c-173 168 -312
282 -476 389 -317 208 -775 390 -1151 456 l-99 17 2 31 c8 96 136 461 226 639
41 83 103 185 112 185 3 0 50 -20 106 -44z m-329 -123 c-93 -201 -166 -407
-206 -583 l-23 -104 -79 -17 c-168 -36 -346 -109 -467 -192 -37 -26 -69 -47
-71 -47 -15 0 87 270 144 378 86 165 289 389 450 497 101 68 294 184 299 180
2 -2 -19 -52 -47 -112z m1129 -64 c464 -78 828 -320 1048 -695 123 -210 205
-545 199 -813 l-3 -125 -38 61 c-46 75 -83 108 -164 145 l-63 28 -76 153
c-169 337 -318 548 -564 801 -129 132 -300 283 -453 399 l-88 67 39 0 c22 0
95 -9 163 -21z m-1145 -790 c87 -16 371 -92 433 -114 11 -4 10 -10 -7 -25 -28
-27 -36 -56 -23 -89 17 -39 40 -49 143 -62 223 -27 399 -120 545 -287 36 -43
70 -78 75 -80 24 -10 -13 148 -43 184 -28 34 17 9 113 -63 57 -42 185 -158
284 -258 l182 -180 3 -165 c2 -91 2 -182 0 -203 l-3 -38 -29 45 c-65 103 -214
161 -318 125 -60 -21 -37 -47 60 -68 71 -15 139 -58 178 -112 36 -49 43 -81
39 -169 l-3 -65 -22 47 c-29 63 -102 134 -171 166 -51 24 -69 27 -167 27 -113
0 -115 -1 -252 -61 -7 -3 3 24 22 61 52 104 70 190 70 335 -1 102 -5 139 -24
200 -51 165 -145 291 -259 347 -50 25 -68 28 -152 28 -84 0 -102 -3 -152 -28
-209 -103 -333 -422 -273 -706 39 -184 126 -314 268 -397 l42 -25 -35 6 c-84
16 -173 70 -317 192 -132 111 -293 164 -402 133 -19 -5 -36 -9 -37 -7 -1 1 6
35 17 74 73 286 -4 667 -156 771 -82 56 -172 42 -261 -40 l-47 -43 8 45 c20
126 132 223 311 269 84 22 114 44 114 88 0 13 -12 35 -26 50 -22 22 -30 24
-72 18 -62 -9 -159 -54 -205 -94 -43 -38 -46 -29 -13 37 30 59 36 64 111 92
173 64 277 73 451 39z m-774 -305 l-28 -89 -17 32 c-9 18 -17 37 -17 44 0 12
80 112 86 106 2 -2 -9 -44 -24 -93z m338 -249 c16 -8 40 -34 54 -58 25 -44 66
-165 66 -197 0 -17 -2 -18 -27 -4 -47 24 -90 14 -125 -30 -22 -26 -23 -37 -3
-30 20 8 65 -40 65 -69 0 -31 -36 -77 -61 -77 -10 0 -28 9 -38 19 -11 11 -22
17 -25 13 -3 -3 -6 -35 -6 -71 0 -144 64 -261 143 -261 43 0 44 -3 16 -50 -28
-45 -48 -59 -84 -60 -72 0 -140 77 -181 204 -35 106 -44 302 -20 414 27 127
74 211 141 253 36 23 48 23 85 4z m-1764 -67 c14 -27 17 -60 16 -183 -2 -305
17 -382 170 -682 66 -129 125 -260 134 -295 23 -86 22 -259 0 -372 -23 -114
-13 -127 48 -64 24 26 50 63 57 82 7 20 16 35 20 34 3 -2 41 -46 85 -98 288
-349 639 -568 1051 -654 65 -13 144 -28 176 -31 31 -4 57 -9 57 -12 0 -3 -23
-39 -51 -81 -28 -43 -85 -146 -127 -231 -89 -179 -84 -174 -268 -216 -199 -45
-427 -55 -574 -24 -70 14 -160 41 -160 49 0 3 26 19 58 34 115 57 206 126 188
143 -3 3 -60 9 -128 15 -153 11 -340 48 -451 88 -87 32 -248 118 -254 137 -2
6 34 13 99 17 190 12 297 33 283 56 -3 5 -42 23 -88 40 -98 38 -267 111 -267
116 0 2 22 24 48 48 27 25 61 68 75 95 27 48 47 141 32 141 -4 0 -45 -35 -90
-79 -62 -59 -96 -84 -139 -100 -202 -75 -438 -33 -632 113 -73 54 -109 104
-124 169 -20 91 9 146 95 183 82 35 316 15 415 -36 42 -21 70 -63 70 -104 0
-27 -39 -79 -74 -98 -12 -7 -87 -15 -173 -18 -84 -3 -157 -10 -163 -16 -7 -7
-4 -19 10 -37 48 -60 241 -96 351 -64 67 20 130 72 159 132 19 39 21 59 18
138 l-3 92 32 3 c25 3 41 -6 82 -42 29 -25 58 -46 66 -46 34 0 7 84 -46 145
-32 36 -34 43 -40 134 -4 60 -13 110 -24 132 -17 35 -17 36 9 73 50 74 58 146
26 247 -24 80 -62 126 -159 194 l-76 53 -35 144 c-25 103 -35 164 -34 218 2
138 59 268 141 321 62 38 88 38 109 -3z m2959 18 c86 -36 158 -122 202 -242
34 -92 43 -257 19 -358 -59 -252 -256 -388 -422 -291 -128 75 -205 241 -205
440 0 204 83 374 214 439 59 30 137 34 192 12z m1419 -193 c80 -57 129 -210
109 -343 -19 -121 -83 -229 -157 -264 -19 -9 -57 -16 -85 -16 -44 0 -56 5 -91
36 -134 121 -139 401 -9 549 69 79 155 93 233 38z m-2910 -557 c38 -77 107
-150 172 -182 71 -35 138 -30 222 17 31 17 81 45 110 62 49 27 60 29 120 25
86 -6 123 -26 263 -138 282 -225 486 -254 740 -106 41 24 110 64 153 89 91 53
161 71 256 65 121 -7 190 -81 198 -215 8 -114 -40 -214 -150 -318 -323 -305
-882 -476 -1568 -478 -301 -1 -447 23 -551 93 -116 76 -101 203 34 280 29 16
56 30 60 30 5 0 -7 -22 -27 -49 -70 -95 -54 -146 53 -178 45 -13 75 -14 161
-7 172 14 250 11 298 -10 47 -22 57 -18 48 18 -17 68 -202 218 -369 300 -240
117 -559 187 -647 141 -59 -30 -34 -56 70 -75 92 -16 180 -41 180 -51 0 -5
-42 -9 -94 -9 -135 0 -211 25 -282 94 -50 48 -54 56 -54 98 0 40 5 50 35 76
45 40 77 45 253 39 116 -3 168 -10 246 -31 107 -29 342 -119 446 -171 36 -18
75 -36 88 -39 62 -20 -12 72 -114 142 -66 44 -239 133 -296 151 -21 7 -38 14
-38 17 0 2 9 18 20 36 29 48 27 118 -5 152 -38 41 -55 35 -55 -20 0 -42 -2
-45 -17 -33 -25 21 -53 90 -53 133 0 42 33 106 55 106 7 0 25 -24 39 -54z
m-1801 -36 c98 -30 220 -118 253 -181 29 -57 6 -159 -36 -159 -11 0 -45 13
-77 29 -136 68 -282 95 -431 79 -77 -8 -96 -8 -104 3 -5 8 -7 48 -6 90 2 60 7
82 23 99 23 25 67 50 110 61 46 13 198 0 268 -21z m4443 -135 c70 -43 188 -54
247 -23 25 13 21 -1 -19 -67 -177 -295 -451 -549 -764 -709 -108 -56 -281
-129 -287 -122 -2 2 22 19 54 37 303 174 546 479 648 814 19 64 35 119 35 122
0 3 10 -2 23 -11 12 -9 40 -27 63 -41z m-4471 -257 c89 -25 199 -82 230 -120
36 -43 42 -92 16 -144 -25 -54 -37 -55 -171 -17 -82 23 -113 27 -230 27 -101
-1 -146 -5 -179 -17 -67 -26 -76 -23 -98 31 -32 74 -35 98 -18 139 19 45 49
79 90 101 63 34 242 34 360 0z m4415 -477 l0 -69 -57 -50 c-94 -81 -218 -159
-378 -237 -330 -161 -586 -228 -870 -227 -150 0 -250 19 -337 62 -41 21 -128
96 -128 111 0 17 105 20 206 5 264 -36 446 -28 665 28 310 79 602 221 834 405
28 22 53 40 58 40 4 1 7 -30 7 -68z m144 -245 c97 -69 98 -70 20 -96 -137 -44
-275 -128 -544 -330 -87 -66 -207 -152 -267 -191 -232 -153 -496 -262 -740
-304 -117 -21 -123 -20 -237 55 -89 58 -182 144 -242 223 -55 72 -120 206
-130 264 -7 44 6 63 74 105 l34 21 41 -43 c208 -215 636 -245 1138 -80 266 87
441 179 733 386 26 19 50 34 53 34 3 0 33 -20 67 -44z m379 -201 c75 -16 164
-60 216 -106 l33 -31 -18 -34 c-53 -98 -263 -352 -425 -514 -126 -126 -416
-370 -439 -370 -11 0 -27 44 -49 130 -53 211 -29 429 70 620 70 136 173 228
307 277 116 42 201 50 305 28z"/>
<path d="M3500 4667 c-32 -15 -79 -109 -169 -337 -90 -228 -91 -232 -53 -270
58 -58 106 -36 153 69 66 146 179 446 179 472 0 22 -39 66 -65 73 -11 3 -31 0
-45 -7z"/>
<path d="M3787 4498 c-9 -7 -29 -40 -45 -73 -45 -90 -162 -391 -162 -413 0
-21 52 -72 73 -72 58 1 70 19 152 229 90 233 98 260 84 293 -19 45 -67 62
-102 36z"/>
<path d="M4062 4287 c-21 -22 -127 -270 -152 -354 -17 -56 -7 -91 32 -107 67
-29 87 -5 167 198 84 212 89 250 36 274 -38 18 -59 15 -83 -11z"/>
<path d="M2896 4508 c-22 -22 -44 -65 -69 -133 -44 -123 -77 -240 -77 -277 0
-57 68 -89 104 -49 15 17 146 400 146 429 0 16 -45 62 -61 62 -6 0 -25 -15
-43 -32z"/>
<path d="M2624 4263 c-30 -21 -97 -213 -92 -264 4 -43 34 -63 68 -46 44 22
113 230 94 284 -10 28 -46 42 -70 26z"/>
<path d="M3875 2974 c-27 -13 -74 -60 -75 -74 0 -3 14 -6 32 -6 38 -2 68 -34
68 -75 0 -61 -71 -90 -122 -49 l-25 19 -6 -47 c-12 -104 27 -227 89 -281 125
-110 274 23 274 244 0 195 -118 330 -235 269z"/>
<path d="M3173 2200 c-48 -29 -82 -107 -54 -124 5 -4 32 -1 60 5 58 12 81 37
81 86 0 27 -5 35 -26 43 -31 12 -23 13 -61 -10z"/>
</g>
</svg>
