<?xml version="1.0" standalone="no"?>
<!DOCTYPE svg PUBLIC "-//W3C//DTD SVG 20010904//EN"
 "http://www.w3.org/TR/2001/REC-SVG-20010904/DTD/svg10.dtd">
<svg version="1.0" xmlns="http://www.w3.org/2000/svg"
 width="640.000000pt" height="640.000000pt" viewBox="0 0 640.000000 640.000000"
 preserveAspectRatio="xMidYMid meet">
<metadata>
Created by potrace 1.16, written by Peter Selinger 2001-2019
</metadata>
<g transform="translate(0.000000,640.000000) scale(0.100000,-0.100000)"
fill="#000000" stroke="none">
<path d="M3759 6272 c-487 -368 -1074 -628 -1709 -757 -207 -42 -569 -85 -717
-85 l-63 0 0 -718 c0 -1226 -12 -2254 -25 -2234 -20 30 -73 164 -90 232 -12
45 -20 131 -25 280 -10 269 -21 304 -112 351 -161 82 -370 -88 -425 -346 -18
-83 -12 -192 17 -314 11 -45 20 -86 20 -90 0 -4 -28 -4 -62 1 -194 29 -344
-24 -427 -148 -46 -70 -56 -136 -36 -239 l17 -84 -30 -38 c-86 -107 -94 -266
-20 -393 19 -32 19 -40 8 -102 -26 -138 5 -248 102 -353 134 -147 380 -245
617 -245 103 0 123 -15 42 -31 -94 -18 -95 -51 -4 -149 122 -132 327 -242 543
-289 87 -20 89 -21 55 -38 -43 -22 -65 -44 -65 -63 0 -46 157 -142 285 -175
103 -26 326 -40 461 -27 l119 11 35 -25 c19 -14 82 -66 140 -115 l105 -89 140
1 140 0 -29 22 c-163 123 -178 138 -172 170 19 95 177 435 269 580 l44 69 36
-76 c52 -109 101 -179 192 -275 98 -103 186 -171 284 -219 66 -32 84 -37 141
-36 85 2 277 46 415 95 219 78 492 234 704 402 46 37 86 65 88 63 2 -2 -8 -43
-23 -92 -23 -76 -27 -113 -32 -251 -5 -176 3 -246 44 -374 l25 -79 174 0 174
0 93 77 c139 116 378 353 487 483 334 397 529 799 629 1290 l30 145 3 1715 4
1715 -45 2 c-821 42 -1526 257 -2180 664 -69 42 -163 106 -209 141 -45 34 -91
69 -100 76 -15 10 -27 5 -82 -36z m146 -223 c156 -113 415 -262 610 -352 495
-228 1009 -367 1546 -418 70 -6 132 -15 139 -19 9 -5 12 -269 15 -1101 3
-1390 -5 -2079 -28 -2204 -41 -223 -106 -440 -188 -627 -32 -74 -101 -209
-115 -226 -1 -2 -26 14 -56 35 -105 77 -154 98 -290 126 -54 12 -83 26 -149
73 -45 33 -111 87 -147 120 l-64 62 4 113 c5 136 10 148 131 308 189 250 323
550 372 830 41 237 38 473 -10 799 -62 427 -130 629 -297 879 -89 133 -262
310 -398 406 -232 163 -544 276 -850 306 -260 26 -365 -28 -415 -214 -10 -36
-21 -65 -25 -65 -3 0 -58 23 -121 52 -156 71 -194 71 -339 3 -263 -124 -437
-241 -606 -410 -216 -215 -329 -422 -410 -750 -34 -139 -41 -249 -20 -311 22
-67 86 -170 141 -232 l47 -52 -12 -83 c-13 -83 -9 -382 4 -423 6 -15 2 -23
-18 -32 -45 -20 -105 -82 -122 -127 -25 -67 -16 -167 22 -241 l30 -59 -191 0
c-188 0 -191 0 -247 -28 -111 -54 -171 -164 -149 -269 15 -66 40 -106 103
-163 84 -76 214 -125 330 -125 34 0 41 -4 56 -32 27 -50 101 -127 166 -171
109 -74 285 -145 526 -212 74 -21 139 -41 143 -45 4 -4 -25 -29 -65 -57 l-73
-50 -90 9 c-334 33 -662 165 -910 368 -89 73 -243 234 -317 330 -136 181 -128
55 -128 1940 0 966 4 1551 9 1555 6 3 86 12 178 20 724 64 1449 320 2053 724
74 50 140 91 145 91 6 0 42 -23 80 -51z m410 -1064 c398 -90 725 -305 934
-615 107 -158 114 -177 34 -93 -170 178 -382 312 -638 402 -170 61 -326 86
-600 97 -185 7 -221 18 -210 62 23 99 37 132 67 157 l33 28 130 -6 c89 -3 168
-13 250 -32z m-794 -189 c285 -126 626 -352 894 -593 276 -249 495 -533 651
-847 70 -141 86 -186 65 -186 -20 0 -122 -93 -152 -140 l-32 -50 -146 143
c-250 244 -468 403 -728 535 -301 152 -629 264 -923 315 l-75 13 2 31 c4 47
68 263 114 381 74 191 202 442 224 442 3 0 50 -20 106 -44z m-329 -123 c-93
-201 -166 -407 -206 -583 l-23 -104 -79 -17 c-168 -36 -346 -109 -467 -192
-37 -26 -69 -47 -71 -47 -15 0 87 270 144 378 86 165 289 389 450 497 101 68
294 184 299 180 2 -2 -19 -52 -47 -112z m1181 -73 c380 -73 719 -284 925 -576
166 -233 258 -531 269 -871 3 -95 4 -173 1 -173 -3 0 -22 27 -42 59 -45 73
-82 106 -163 143 l-62 28 -85 167 c-248 490 -531 821 -1031 1203 l-70 53 75
-6 c42 -4 124 -16 183 -27z m-1222 -775 c166 -31 590 -156 588 -173 0 -4 -30
-21 -67 -39 -98 -47 -174 -128 -158 -170 9 -22 49 -15 147 25 91 36 98 37 214
37 100 -1 129 -5 177 -24 83 -32 162 -88 248 -175 82 -83 105 -94 98 -46 -3
17 -2 30 2 30 17 0 163 -130 311 -279 l167 -167 4 -169 c2 -94 2 -183 -2 -199
l-5 -29 -28 42 c-51 78 -155 131 -253 131 -53 0 -96 -18 -92 -39 3 -16 12 -19
110 -46 72 -19 148 -79 177 -138 18 -37 21 -59 19 -124 l-3 -78 -22 47 c-29
63 -102 134 -171 166 -71 33 -202 42 -281 19 -28 -8 -51 -14 -51 -13 0 0 7 26
16 56 25 89 30 289 9 395 -40 214 -139 370 -285 446 -39 21 -59 24 -145 24
-92 0 -104 -2 -155 -30 -142 -78 -241 -237 -286 -456 -26 -131 -16 -326 24
-444 16 -49 28 -92 26 -94 -2 -2 -40 27 -86 63 -134 110 -262 163 -367 153
-31 -3 -65 -9 -75 -13 -16 -6 -18 -4 -12 12 37 94 47 372 21 549 -30 200 -76
320 -145 376 -81 67 -165 59 -256 -24 -30 -27 -54 -46 -54 -42 0 26 36 138 60
184 35 69 70 108 115 127 46 19 61 18 111 -7 31 -14 56 -39 90 -90 26 -38 53
-68 58 -66 6 2 12 22 14 46 4 52 -31 132 -83 190 -21 23 -36 44 -33 46 2 2 22
9 44 14 61 14 174 12 265 -4z m-749 -311 l-28 -89 -17 32 c-9 18 -17 37 -17
44 0 12 80 112 86 106 2 -2 -9 -44 -24 -93z m326 -148 c48 -25 96 -139 126
-294 13 -73 13 -74 -8 -67 -58 19 -82 17 -115 -10 -28 -24 -78 -102 -69 -110
2 -2 20 -10 40 -18 20 -8 44 -28 54 -42 18 -27 17 -28 -5 -46 -27 -22 -44 -24
-73 -8 -18 10 -24 8 -36 -7 -33 -45 10 -280 64 -344 l26 -30 -33 0 c-26 0 -42
10 -80 49 -79 82 -119 220 -119 412 0 248 69 467 163 513 39 19 33 19 65 2z
m-1751 -168 c14 -27 17 -59 15 -183 -3 -284 20 -390 131 -605 134 -259 158
-311 174 -374 22 -84 21 -259 -1 -370 -11 -56 -14 -92 -8 -98 15 -15 75 44
102 101 14 28 28 49 31 48 3 -1 41 -45 85 -97 298 -361 643 -571 1084 -660 80
-17 157 -30 173 -30 15 0 27 -3 27 -6 0 -3 -23 -40 -51 -82 -28 -43 -85 -146
-127 -231 -89 -179 -83 -174 -270 -216 -157 -36 -346 -50 -479 -36 -103 10
-253 47 -253 60 0 4 26 20 58 35 115 57 206 126 188 143 -3 3 -60 9 -128 15
-153 11 -340 48 -451 88 -88 32 -248 118 -254 137 -3 7 36 13 109 18 171 10
287 33 273 54 -3 5 -42 24 -88 41 -98 38 -267 111 -267 116 0 2 22 24 48 48
27 25 61 68 75 95 27 48 47 141 32 141 -4 0 -45 -35 -90 -79 -61 -59 -96 -84
-139 -100 -203 -76 -437 -34 -632 113 -73 55 -109 104 -124 171 -20 91 8 144
95 181 82 35 316 15 415 -36 70 -36 89 -106 44 -159 -42 -50 -59 -55 -221 -61
-88 -3 -157 -10 -163 -16 -8 -7 -5 -18 10 -37 48 -60 241 -96 351 -64 67 20
130 72 159 132 19 39 21 59 18 138 l-3 92 32 3 c25 3 41 -6 82 -42 29 -25 58
-46 66 -46 34 0 7 84 -46 145 -32 36 -34 43 -40 134 -4 60 -13 110 -24 132
-17 35 -17 36 9 73 51 75 58 146 25 251 -17 55 -31 78 -72 119 -29 28 -77 68
-107 88 l-55 36 -35 143 c-25 104 -35 165 -34 219 2 138 59 268 141 321 62 38
88 38 110 -3z m3001 3 c51 -26 125 -108 156 -175 49 -103 69 -201 70 -331 0
-124 -11 -182 -54 -298 -19 -50 -30 -63 -81 -98 -185 -125 -310 -139 -399 -43
-94 102 -146 277 -136 454 10 186 66 330 166 431 87 88 182 109 278 60z m1376
-178 c80 -57 129 -210 109 -343 -19 -121 -83 -229 -157 -264 -45 -21 -125 -21
-156 1 -119 83 -161 314 -86 478 67 148 187 200 290 128z m-2907 -560 c38 -78
104 -147 169 -179 72 -35 138 -30 222 17 144 81 163 89 221 89 78 0 133 -29
271 -139 283 -226 486 -256 741 -107 41 24 110 64 153 89 92 54 163 71 258 65
87 -7 136 -37 169 -105 64 -131 22 -288 -115 -426 -204 -207 -583 -399 -911
-462 -115 -23 -313 -30 -420 -16 -386 51 -885 261 -885 373 0 76 152 43 451
-97 316 -148 459 -179 718 -157 155 13 276 43 410 100 188 81 364 216 458 351
26 36 57 80 69 97 l23 32 41 -20 c47 -24 70 -18 70 17 0 37 -27 72 -79 103
-38 23 -58 27 -116 27 -78 -1 -129 -21 -179 -73 -41 -43 -28 -56 50 -49 35 4
64 4 64 1 0 -15 -96 -127 -147 -171 -164 -142 -356 -233 -568 -270 -108 -18
-361 -13 -440 10 -70 20 -174 62 -370 152 -93 43 -209 93 -256 111 -201 78
-430 115 -497 80 -35 -18 -41 -40 -14 -54 9 -6 58 -18 107 -27 96 -19 120 -30
95 -45 -26 -16 -125 -11 -195 11 -53 16 -78 31 -121 73 -50 48 -54 56 -54 97
0 36 5 50 28 71 15 15 40 32 55 37 36 14 266 14 343 1 139 -25 338 -95 545
-191 61 -28 113 -48 117 -45 13 14 -28 63 -94 114 -69 52 -265 159 -336 182
-21 6 -38 13 -38 16 0 2 9 18 20 36 29 48 27 118 -5 152 -38 41 -55 35 -55
-20 0 -42 -2 -45 -17 -33 -25 21 -53 90 -53 133 0 42 33 106 56 106 7 0 26
-25 41 -57z m-1804 -33 c98 -30 220 -118 253 -181 29 -57 6 -159 -36 -159 -11
0 -45 13 -77 29 -136 68 -282 95 -431 79 -77 -8 -96 -8 -104 3 -5 8 -7 48 -6
90 2 60 7 82 23 99 23 25 67 50 110 61 46 13 198 0 268 -21z m4443 -135 c70
-43 188 -54 247 -23 25 13 21 -1 -19 -67 -68 -113 -150 -219 -254 -328 -156
-163 -330 -292 -529 -392 -100 -50 -262 -118 -268 -112 -2 2 34 27 79 55 304
187 523 466 623 797 19 64 35 119 35 122 0 3 10 -2 23 -11 12 -9 40 -27 63
-41z m-4471 -257 c89 -25 199 -82 230 -120 36 -43 42 -92 16 -144 -25 -54 -37
-55 -171 -17 -82 23 -113 27 -230 27 -101 -1 -146 -5 -179 -17 -67 -26 -76
-23 -98 31 -32 74 -35 98 -18 139 19 45 49 79 90 101 64 35 240 35 360 0z
m4415 -477 l0 -68 -59 -51 c-94 -82 -215 -158 -376 -237 -330 -161 -585 -228
-870 -227 -200 1 -345 42 -418 120 l-29 30 29 6 c15 4 163 6 328 5 277 -1 308
0 400 21 355 79 679 228 930 429 28 22 53 40 58 40 4 1 7 -30 7 -68z m144
-245 c97 -69 98 -70 20 -96 -138 -44 -265 -121 -554 -337 -254 -189 -328 -236
-495 -318 -176 -86 -325 -137 -486 -167 -134 -25 -136 -25 -253 52 -89 58
-182 144 -242 223 -57 75 -122 210 -130 269 l-6 44 56 39 57 39 41 -43 c56
-57 111 -94 186 -124 237 -97 580 -81 954 43 269 89 441 180 732 386 26 19 50
34 53 34 3 0 33 -20 67 -44z m379 -201 c75 -16 164 -60 216 -107 l34 -30 -18
-32 c-66 -114 -251 -339 -415 -504 -138 -139 -425 -382 -451 -382 -10 0 -36
72 -53 150 -46 208 -20 416 75 600 70 136 173 228 307 277 116 42 201 50 305
28z"/>
<path d="M3500 4667 c-32 -15 -79 -109 -169 -337 -89 -227 -90 -229 -52 -268
40 -44 81 -44 114 1 38 51 217 494 217 537 0 23 -38 66 -65 74 -11 3 -31 0
-45 -7z"/>
<path d="M3787 4498 c-9 -7 -29 -40 -45 -73 -45 -90 -162 -391 -162 -413 0
-21 52 -72 73 -72 58 1 70 19 152 229 90 233 98 260 84 293 -19 45 -67 62
-102 36z"/>
<path d="M4066 4288 c-24 -22 -126 -253 -156 -355 -18 -59 -7 -91 36 -109 32
-13 38 -13 60 1 29 19 47 54 113 222 73 188 77 228 26 251 -37 17 -50 15 -79
-10z"/>
<path d="M2896 4508 c-22 -22 -44 -64 -65 -123 -45 -125 -81 -252 -81 -286 0
-58 68 -90 104 -50 15 17 146 400 146 429 0 16 -45 62 -61 62 -6 0 -26 -15
-43 -32z"/>
<path d="M2617 4253 c-34 -38 -90 -206 -85 -255 4 -42 34 -62 68 -45 44 22
113 230 94 284 -12 34 -52 43 -77 16z"/>
<path d="M3891 2963 c-26 -5 -111 -85 -111 -105 0 -7 17 -23 39 -35 45 -26 74
-78 60 -105 -10 -19 -18 -21 -94 -22 l-50 -1 0 -90 c1 -103 20 -171 66 -235
57 -78 117 -97 189 -60 82 42 133 162 134 315 1 163 -51 287 -137 325 -42 20
-52 21 -96 13z"/>
<path d="M3173 2200 c-48 -29 -82 -107 -54 -124 5 -4 32 -1 60 5 58 12 81 37
81 86 0 27 -5 35 -26 43 -31 12 -23 13 -61 -10z"/>
</g>
</svg>
