<?xml version="1.0" ?>
<svg xmlns="http://www.w3.org/2000/svg" xmlns:ev="http://www.w3.org/2001/xml-events" xmlns:xlink="http://www.w3.org/1999/xlink" baseProfile="full" height="600px" version="1.1" viewBox="-14.22940119345359 214.06474999999995 195.90957402922214 444.9705000000004" width="265px">
	<defs/>
	<path d="M 128.8,251.29999999999998 L 128.5,403.5" fill="none" stroke="#000000" stroke-width="0.37050000000000033"/>
	<path d="M 128.5,403.5 L 123.7,394.0" fill="none" stroke="#000000" stroke-width="0.37050000000000033"/>
	<path d="M 123.7,394.0 C 121.0,388.4 118.0,380.4 116.5,374.5" fill="none" stroke="#000000" stroke-width="0.37050000000000033"/>
	<path d="M 116.5,374.5 C 114.3,365.7 114.0,362.4 114.0,345.9" fill="none" stroke="#000000" stroke-width="0.37050000000000033"/>
	<path d="M 114.0,345.9 C 114.0,320.9 112.1,314.59999999999997 102.9,310.0" fill="none" stroke="#000000" stroke-width="0.37050000000000033"/>
	<path d="M 102.9,310.0 C 90.60000000000001,303.7 74.5,312.1 66.0,329.4" fill="none" stroke="#000000" stroke-width="0.37050000000000033"/>
	<path d="M 66.0,329.4 C 57.8,345.79999999999995 57.5,359.59999999999997 64.6,384.9" fill="none" stroke="#000000" stroke-width="0.37050000000000033"/>
	<path d="M 64.6,384.9 C 65.3,387.29999999999995 65.19999999999999,387.29999999999995 60.89999999999999,386.4" fill="none" stroke="#000000" stroke-width="0.37050000000000033"/>
	<path d="M 60.89999999999999,386.4 C 58.49999999999999,385.9 51.79999999999999,385.5 45.99999999999999,385.5" fill="none" stroke="#000000" stroke-width="0.37050000000000033"/>
	<path d="M 45.99999999999999,385.5 C 36.599999999999994,385.6 34.8,385.9 29.199999999999992,388.4" fill="none" stroke="#000000" stroke-width="0.37050000000000033"/>
	<path d="M 29.199999999999992,388.4 C 24.999999999999993,390.4 21.29999999999999,393.0 18.099999999999994,396.59999999999997" fill="none" stroke="#000000" stroke-width="0.37050000000000033"/>
	<path d="M 18.099999999999994,396.59999999999997 C 10.199999999999994,405.2 8.399999999999995,413.59999999999997 11.599999999999994,426.59999999999997" fill="none" stroke="#000000" stroke-width="0.37050000000000033"/>
	<path d="M 11.599999999999994,426.59999999999997 L 13.299999999999994,433.09999999999997" fill="none" stroke="#000000" stroke-width="0.37050000000000033"/>
	<path d="M 13.299999999999994,433.09999999999997 L 10.699999999999994,435.79999999999995" fill="none" stroke="#000000" stroke-width="0.37050000000000033"/>
	<path d="M 10.699999999999994,435.79999999999995 C 7.299999999999994,439.29999999999995 3.199999999999994,448.49999999999994 2.3999999999999932,454.09999999999997" fill="none" stroke="#000000" stroke-width="0.37050000000000033"/>
	<path d="M 2.3999999999999932,454.09999999999997 C 1.5999999999999932,459.79999999999995 4.099999999999993,469.7 7.899999999999993,476.49999999999994" fill="none" stroke="#000000" stroke-width="0.37050000000000033"/>
	<path d="M 7.899999999999993,476.49999999999994 C 9.999999999999993,480.29999999999995 10.499999999999993,482.09999999999997 9.799999999999994,483.29999999999995" fill="none" stroke="#000000" stroke-width="0.37050000000000033"/>
	<path d="M 9.799999999999994,483.29999999999995 C 7.899999999999993,486.79999999999995 6.999999999999994,496.4 8.099999999999994,502.4" fill="none" stroke="#000000" stroke-width="0.37050000000000033"/>
	<path d="M 8.099999999999994,502.4 C 12.399999999999995,526.6 45.099999999999994,546.9 79.69999999999999,547.0" fill="none" stroke="#000000" stroke-width="0.37050000000000033"/>
	<path d="M 79.69999999999999,547.0 C 84.69999999999999,547.0 90.1,547.5 91.69999999999999,548.1" fill="none" stroke="#000000" stroke-width="0.37050000000000033"/>
	<path d="M 91.69999999999999,548.1 C 94.39999999999999,549.3000000000001 94.39999999999999,549.3000000000001 88.49999999999999,550.7" fill="none" stroke="#000000" stroke-width="0.37050000000000033"/>
	<path d="M 88.49999999999999,550.7 C 85.19999999999999,551.5 81.39999999999999,552.3000000000001 80.19999999999999,552.6" fill="none" stroke="#000000" stroke-width="0.37050000000000033"/>
	<path d="M 80.19999999999999,552.6 C 78.19999999999999,553.0 77.89999999999999,553.5 78.49999999999999,555.8000000000001" fill="none" stroke="#000000" stroke-width="0.37050000000000033"/>
	<path d="M 78.49999999999999,555.8000000000001 C 78.79999999999998,557.3000000000001 80.49999999999999,560.3000000000001 82.19999999999999,562.4000000000001" fill="none" stroke="#000000" stroke-width="0.37050000000000033"/>
	<path d="M 82.19999999999999,562.4000000000001 C 94.39999999999999,577.7 116.1,589.5000000000001 143.29999999999998,595.5000000000001" fill="none" stroke="#000000" stroke-width="0.37050000000000033"/>
	<path d="M 143.29999999999998,595.5000000000001 L 151.1,597.2000000000002" fill="none" stroke="#000000" stroke-width="0.37050000000000033"/>
	<path d="M 151.1,597.2000000000002 L 145.0,600.1000000000001" fill="none" stroke="#000000" stroke-width="0.37050000000000033"/>
	<path d="M 145.0,600.1000000000001 C 140.7,602.1000000000001 139.0,603.5000000000001 139.0,604.9000000000001" fill="none" stroke="#000000" stroke-width="0.37050000000000033"/>
	<path d="M 139.0,604.9000000000001 C 139.0,609.6000000000001 151.3,617.6000000000001 165.2,621.8000000000001" fill="none" stroke="#000000" stroke-width="0.37050000000000033"/>
</svg>
