<?xml version="1.0" ?>
<svg xmlns="http://www.w3.org/2000/svg" xmlns:ev="http://www.w3.org/2001/xml-events" xmlns:xlink="http://www.w3.org/1999/xlink" baseProfile="full" height="600px" version="1.1" viewBox="94.62498477155376 -62.27463791587063 600.7314713297923 851.749653104087" width="424px">
	<defs/>
	<path d="M 378.5,15.3 C 341.7,43.7 289.2,69.1 238.4,82.89999999999999 L 165.2,621.8000000000001 C 178.1,625.8000000000001 205.0,627.0000000000001 223.5,624.4000000000001 C 227.4,623.9000000000001 227.8,624.2 237.2,632.4000000000001 C 267.8,659.1000000000001 302.2,681.8000000000001 336.6,698.1000000000001 C 357.1,707.8000000000002 383.1,718.2000000000002 387.0,718.2000000000002 C 394.5,718.3000000000002 439.0,698.5000000000001 466.0,683.2000000000002 C 512.0,657.1000000000001 558.1,617.3000000000002 587.4,578.6000000000001 C 616.8,539.6000000000001 633.1,503.3000000000001 641.6999999999999,458.0000000000001 L 644.4999999999999,443.5000000000001 L 644.7999999999998,271.4000000000001 L 644.9999999999999,99.2000000000001 L 633.2999999999998,98.60000000000011 C 575.1999999999998,95.10000000000011 523.7999999999998,82.80000000000011 471.29999999999984,59.60000000000011 C 445.6999999999998,48.20000000000011 411.09999999999985,27.800000000000107 394.1999999999998,14.100000000000108 C 390.79999999999984,11.300000000000107 387.6999999999998,9.000000000000108 387.1999999999998,9.000000000000108 C 386.79999999999984,9.000000000000108 382.8999999999998,11.900000000000109 378.49999999999983,15.300000000000107 L 378.5,15.3" fill="none" stroke="#000000" stroke-width="0.7092003772723456"/>
	<path d="M 393.6,33.3 C 452.0,75.8 532.8,105.2 611.4000000000001,112.5 C 620.7,113.4 628.7,114.3 629.2,114.6 C 630.4000000000001,115.39999999999999 630.2,415.4 629.0,432.5 C 626.7,463.8 616.1,500.0 600.9,528.5 L 595.9,537.8 L 589.1999999999999,532.8 C 585.4999999999999,530.0 580.1999999999999,526.5999999999999 577.3,525.3 C 572.1999999999999,523.0 560.9,520.0999999999999 556.0,520.0 C 553.3,519.9 529.2,501.4 525.8,496.9 C 524.3,494.9 523.9,492.5 523.8,484.9 C 523.5999999999999,471.4 525.3,466.5 534.0,455.7 C 553.2,431.9 568.0,401.8 573.6,375.0 C 578.3000000000001,352.4 579.4,326.3 576.6,305.5 C 575.7,299.4 574.2,288.0 573.1,280.0 C 569.1,250.7 562.6,229.9 550.9,208.8 C 535.9,181.9 511.2,158.5 482.09999999999997,144.0 C 453.7,129.7 411.59999999999997,121.8 392.69999999999993,127.0 C 384.99999999999994,129.2 378.49999999999994,138.1 375.8999999999999,149.9 C 375.2999999999999,152.70000000000002 374.69999999999993,155.0 374.49999999999994,155.0 C 374.29999999999995,155.0 368.59999999999997,152.5 361.79999999999995,149.4 C 343.99999999999994,141.4 343.4,141.3 325.9,149.4 C 274.79999999999995,173.0 242.7,206.4 228.99999999999997,250.5 C 222.09999999999997,272.4 219.89999999999998,287.7 222.29999999999998,296.1 C 224.39999999999998,303.0 231.79999999999998,315.1 237.7,321.1 L 242.2,325.8 L 241.0,331.1 C 238.5,342.8 238.7,370.90000000000003 241.5,378.1 C 241.9,379.20000000000005 240.9,380.20000000000005 238.0,381.5 C 225.0,387.4 221.3,403.8 229.5,418.6 L 233.2,425.3 L 227.39999999999998,424.40000000000003 C 224.09999999999997,423.90000000000003 215.7,423.50000000000006 208.49999999999997,423.6 C 197.59999999999997,423.6 194.59999999999997,424.0 189.99999999999997,425.8 C 170.79999999999998,433.40000000000003 166.19999999999996,453.3 180.29999999999998,467.5 C 189.7,476.8 201.89999999999998,482.0 214.59999999999997,482.0 C 220.49999999999997,482.0 220.79999999999995,482.1 221.99999999999997,485.0 C 228.29999999999998,500.1 250.79999999999998,513.0 290.5,524.0 C 298.8,526.4 306.1,528.4 306.9,528.6 C 308.79999999999995,529.2 307.2,530.8000000000001 299.29999999999995,536.2 L 292.49999999999994,540.8000000000001 L 282.99999999999994,540.0000000000001 C 250.19999999999993,537.1000000000001 218.39999999999995,524.6000000000001 192.39999999999995,504.3000000000001 C 177.79999999999995,493.0000000000001 155.49999999999994,468.0000000000001 149.79999999999995,456.5000000000001 C 148.19999999999996,453.4000000000001 146.49999999999994,442.60000000000014 145.59999999999997,430.5000000000001 C 145.29999999999995,426.60000000000014 144.99999999999997,354.0000000000001 144.99999999999997,269.10000000000014 C 144.89999999999998,155.50000000000014 145.19999999999996,114.50000000000014 145.99999999999997,114.00000000000014 C 146.59999999999997,113.60000000000014 152.49999999999997,113.00000000000014 159.09999999999997,112.60000000000014 C 230.39999999999998,108.60000000000014 314.79999999999995,79.10000000000014 375.0,37.100000000000136 C 381.3,32.70000000000014 386.8,29.100000000000136 387.1,29.100000000000136 C 387.5,29.000000000000135 390.40000000000003,30.900000000000137 393.6,33.30000000000014 L 393.6,33.3" fill="none" stroke="#000000" stroke-width="0.7092003772723456"/>
	<path d="M 427.5,140.6 C 466.0,147.0 499.3,165.0 522.5,191.89999999999998 C 528.5,198.79999999999998 544.9,223.99999999999997 545.0,226.2 C 545.0,226.6 541.7,223.29999999999998 537.7,218.7 C 524.3000000000001,203.7 508.90000000000003,192.2 489.1,182.5 C 464.70000000000005,170.5 439.8,165.1 409.5,165.0 C 395.3,165.0 393.1,164.8 390.2,163.0 C 387.5,161.3 387.09999999999997,160.6 387.59999999999997,158.3 C 390.4,145.20000000000002 393.09999999999997,140.60000000000002 398.29999999999995,139.20000000000002 C 402.49999999999994,138.10000000000002 416.29999999999995,138.8 427.49999999999994,140.60000000000002 L 427.5,140.6" fill="none" stroke="#000000" stroke-width="0.7092003772723456"/>
	<path d="M 353.1,160.0 C 364.90000000000003,164.9 385.6,176.0 398.5,184.4 C 447.8,216.5 483.6,253.2 508.0,296.8 C 515.4,310.0 522.6,326.3 521.2,326.8 C 515.7,328.6 504.1,339.90000000000003 502.50000000000006,345.0 C 502.1000000000001,346.1 501.30000000000007,346.9 500.70000000000005,346.9 C 500.00000000000006,346.79999999999995 495.70000000000005,342.7 491.00000000000006,337.59999999999997 C 472.70000000000005,317.9 447.20000000000005,297.49999999999994 425.00000000000006,284.79999999999995 C 395.1000000000001,267.69999999999993 352.20000000000005,251.79999999999995 322.70000000000005,246.99999999999994 C 316.1,245.89999999999995 310.50000000000006,244.89999999999995 310.30000000000007,244.59999999999994 C 309.70000000000005,243.99999999999994 312.70000000000005,231.69999999999993 316.1000000000001,220.49999999999994 C 322.2000000000001,200.79999999999995 333.50000000000006,174.89999999999995 341.6000000000001,162.19999999999993 C 343.50000000000006,159.39999999999992 345.1000000000001,156.99999999999994 345.4000000000001,156.99999999999994 C 345.6000000000001,156.99999999999994 349.0000000000001,158.39999999999995 353.1000000000001,159.99999999999994 L 353.1,160.0" fill="none" stroke="#000000" stroke-width="0.7092003772723456"/>
	<path d="M 326.40000000000003,169.2 C 316.3,189.29999999999998 306.00000000000006,218.2 302.3,236.6 L 300.7,244.9 L 295.09999999999997,246.0 C 274.29999999999995,250.1 254.99999999999997,258.2 241.59999999999997,268.5 C 238.99999999999997,270.4 236.79999999999995,272.0 236.59999999999997,272.0 C 234.69999999999996,272.0 245.89999999999998,241.7 251.69999999999996,231.0 C 260.99999999999994,213.9 277.49999999999994,195.3 293.79999999999995,183.5 C 301.59999999999997,177.8 327.59999999999997,162.1 329.29999999999995,162.0 C 329.69999999999993,162.0 328.4,165.3 326.4,169.2 L 326.40000000000003,169.2" fill="none" stroke="#000000" stroke-width="0.7092003772723456"/>
	<path d="M 428.0,179.1 C 450.3,181.79999999999998 466.4,186.6 485.5,196.0 C 512.0,209.2 532.8,229.4 546.6,255.5 C 559.0,278.9 567.1,318.3 564.5,342.5 L 563.8,349.4 L 560.3,342.7 C 555.8,334.3 550.0,328.8 542.3,326.0 L 536.3,323.8 L 530.1999999999999,311.2 C 506.79999999999995,262.59999999999997 477.3999999999999,226.6 431.79999999999995,191.2 C 424.79999999999995,185.7 417.99999999999994,180.6 416.79999999999995,179.7 L 414.49999999999994,178.1 L 416.99999999999994,178.1 C 418.3999999999999,178.0 423.3999999999999,178.5 427.99999999999994,179.1 L 428.0,179.1" fill="none" stroke="#000000" stroke-width="0.7092003772723456"/>
	<path d="M 316.7,259.5 C 334.5,262.4 370.2,272.9 380.4,278.2 L 383.2,279.7 L 378.8,282.3 C 368.3,288.40000000000003 354.0,309.40000000000003 357.8,313.2 C 358.40000000000003,313.8 360.5,312.2 363.6,308.8 C 377.90000000000003,293.2 386.5,287.6 396.20000000000005,287.5 C 401.00000000000006,287.5 403.1,288.2 410.70000000000005,292.1 C 422.40000000000003,298.3 437.40000000000003,307.70000000000005 449.00000000000006,316.40000000000003 C 458.90000000000003,323.8 480.30000000000007,344.00000000000006 489.30000000000007,354.3 L 494.50000000000006,360.3 L 494.90000000000003,371.90000000000003 C 495.50000000000006,391.50000000000006 495.40000000000003,400.90000000000003 494.6,401.70000000000005 C 494.1,402.1 493.5,402.00000000000006 493.3,401.30000000000007 C 492.1,397.80000000000007 486.5,390.9000000000001 483.1,388.70000000000005 C 475.8,383.80000000000007 465.5,381.90000000000003 459.1,384.1 C 454.1,385.90000000000003 455.40000000000003,388.3 461.90000000000003,389.20000000000005 C 469.00000000000006,390.30000000000007 474.8,392.90000000000003 479.8,397.40000000000003 C 485.8,402.8 488.0,408.40000000000003 488.0,417.70000000000005 C 488.0,428.00000000000006 486.8,429.70000000000005 484.4,423.00000000000006 C 479.7,410.00000000000006 465.79999999999995,401.00000000000006 450.5,401.00000000000006 C 439.1,401.00000000000006 428.8,405.00000000000006 412.3,415.70000000000005 C 397.2,425.40000000000003 394.1,426.50000000000006 382.0,426.50000000000006 C 373.3,426.40000000000003 370.7,426.1000000000001 366.6,424.20000000000005 C 361.0,421.6 350.6,414.20000000000005 341.5,406.20000000000005 C 328.1,394.50000000000006 311.2,389.6 299.3,394.1 C 296.6,395.1 296.6,394.90000000000003 298.5,388.40000000000003 C 302.8,373.6 302.4,346.40000000000003 297.5,324.50000000000006 C 294.5,311.40000000000003 291.3,304.40000000000003 286.0,299.6000000000001 C 277.1,291.6000000000001 267.7,292.80000000000007 257.7,303.4000000000001 C 252.5,309.0000000000001 252.6,309.30000000000007 255.1,298.0000000000001 C 256.5,291.60000000000014 260.7,282.7000000000001 264.6,278.10000000000014 C 268.1,273.8000000000001 272.0,272.0000000000001 277.3,272.0000000000001 C 283.0,272.0000000000001 287.5,275.0000000000001 291.7,281.5000000000001 C 297.9,291.10000000000014 297.5,290.7000000000001 298.8,288.4000000000001 C 301.1,284.1000000000001 296.40000000000003,272.2000000000001 289.7,265.30000000000007 C 285.7,261.1000000000001 285.7,261.1000000000001 288.09999999999997,260.50000000000006 C 298.59999999999997,257.90000000000003 305.2,257.6000000000001 316.7,259.50000000000006 L 316.7,259.5" fill="none" stroke="#000000" stroke-width="0.7092003772723456"/>
	<path d="M 244.89999999999998,288.7 C 243.39999999999998,293.59999999999997 241.79999999999998,298.8 241.49999999999997,300.5 L 240.79999999999998,303.5 L 238.49999999999997,299.0 C 237.19999999999996,296.5 236.09999999999997,293.8 235.99999999999997,292.9 C 235.99999999999997,291.7 246.49999999999997,280.09999999999997 247.59999999999997,280.0 C 247.69999999999996,280.0 246.49999999999997,283.9 244.89999999999998,288.7" fill="none" stroke="#000000" stroke-width="0.7092003772723456"/>
	<path d="M 276.9,306.4 C 282.2,309.2 287.9,324.0 290.4,341.79999999999995 L 291.0,345.99999999999994 L 287.3,343.99999999999994 C 283.1,341.79999999999995 279.7,342.19999999999993 276.2,345.3999999999999 C 274.09999999999997,347.19999999999993 270.0,353.8999999999999 270.0,355.3999999999999 C 270.0,355.69999999999993 271.8,356.3999999999999 274.0,356.99999999999994 C 277.2,357.79999999999995 278.5,358.8999999999999 279.7,361.49999999999994 C 281.3,364.79999999999995 281.2,365.09999999999997 279.5,366.99999999999994 C 277.5,369.19999999999993 274.0,369.59999999999997 270.8,367.8999999999999 C 267.90000000000003,366.3999999999999 267.0,368.0999999999999 267.0,375.49999999999994 C 267.0,387.3999999999999 272.0,402.59999999999997 276.5,404.3999999999999 C 278.9,405.2999999999999 278.2,406.99999999999994 275.5,406.99999999999994 C 265.5,406.99999999999994 257.8,396.49999999999994 253.8,377.19999999999993 C 248.3,350.79999999999995 256.6,312.8999999999999 269.2,306.69999999999993 C 273.3,304.69999999999993 273.4,304.69999999999993 276.9,306.3999999999999 L 276.9,306.4" fill="none" stroke="#000000" stroke-width="0.7092003772723456"/>
	<path d="M 540.0,339.49999999999994 C 546.0,342.59999999999997 549.8,347.8999999999999 552.5,357.19999999999993 C 557.8,375.49999999999994 550.7,397.5999999999999 537.5,403.99999999999994 C 531.9,406.69999999999993 524.4,406.3999999999999 520.2,403.29999999999995 C 515.7,399.99999999999994 511.40000000000003,392.59999999999997 509.50000000000006,384.99999999999994 C 502.80000000000007,357.79999999999995 521.4000000000001,329.99999999999994 540.0,339.49999999999994" fill="none" stroke="#000000" stroke-width="0.7092003772723456"/>
	<path d="M 247.5,396.49999999999994 C 248.4,398.99999999999994 251.0,403.29999999999995 253.1,406.09999999999997 C 264.3,420.2 277.0,422.2 291.3,411.99999999999994 C 307.40000000000003,400.3999999999999 318.5,402.59999999999997 340.0,421.3999999999999 C 350.1,430.2999999999999 364.6,437.5999999999999 375.2,439.0999999999999 C 389.5,441.19999999999993 402.3,437.19999999999993 420.4,425.2999999999999 C 433.59999999999997,416.4999999999999 439.0,414.5999999999999 450.5,414.4999999999999 C 458.6,414.4999999999999 460.0,414.7999999999999 464.2,417.1999999999999 C 467.8,419.39999999999986 469.5,421.2999999999999 471.59999999999997,425.6999999999999 C 475.59999999999997,433.6999999999999 475.9,440.59999999999985 472.7,449.6999999999999 C 469.4,458.9999999999999 465.9,463.9999999999999 456.3,472.9999999999999 C 436.1,491.89999999999986 400.7,509.39999999999986 369.5,515.9999999999999 C 355.2,519.0999999999999 333.3,519.7999999999998 320.6,517.5999999999999 C 286.5,511.7999999999999 250.60000000000002,498.2999999999999 238.8,486.9999999999999 C 231.20000000000002,479.6999999999999 232.4,474.9999999999999 241.70000000000002,474.9999999999999 C 249.00000000000003,474.9999999999999 259.40000000000003,478.6999999999999 281.0,488.9999999999999 C 299.6,497.89999999999986 310.2,501.7999999999999 322.0,504.0999999999999 C 331.0,505.8999999999999 353.5,505.5999999999999 364.6,503.69999999999993 C 398.6,497.5999999999999 430.40000000000003,477.8999999999999 444.3,454.19999999999993 C 448.8,446.5999999999999 451.0,444.5999999999999 452.5,446.8999999999999 C 452.8,447.3999999999999 454.7,448.3999999999999 456.6,448.99999999999994 C 459.40000000000003,449.99999999999994 460.40000000000003,449.99999999999994 461.0,449.09999999999997 C 462.2,447.09999999999997 460.9,443.2 458.1,440.4 C 450.0,432.09999999999997 435.20000000000005,431.79999999999995 426.0,439.7 C 419.7,445.09999999999997 420.5,446.3 429.7,445.5 L 437.3,444.7 L 433.90000000000003,449.59999999999997 C 425.6,461.4 412.3,472.29999999999995 397.00000000000006,479.99999999999994 C 378.00000000000006,489.59999999999997 359.80000000000007,493.49999999999994 338.50000000000006,492.69999999999993 C 319.1000000000001,491.99999999999994 314.80000000000007,490.5999999999999 277.30000000000007,473.19999999999993 C 251.10000000000008,460.99999999999994 232.90000000000006,455.29999999999995 217.50000000000006,454.29999999999995 C 210.10000000000005,453.79999999999995 207.80000000000007,453.99999999999994 205.10000000000005,455.4 C 199.70000000000005,458.2 201.30000000000004,460.2 210.00000000000006,461.7 C 219.30000000000007,463.2 226.00000000000006,465.0 226.00000000000006,466.0 C 226.00000000000006,469.1 217.00000000000006,470.4 208.20000000000005,468.6 C 199.80000000000004,466.90000000000003 192.50000000000006,462.6 188.30000000000004,457.1 C 182.90000000000003,450.1 184.50000000000003,442.90000000000003 192.30000000000004,438.8 C 196.10000000000005,436.7 197.90000000000003,436.5 210.50000000000003,436.5 C 221.50000000000003,436.5 226.80000000000004,437.0 234.90000000000003,438.8 C 248.90000000000003,442.0 265.50000000000006,447.90000000000003 281.8,455.6 C 289.2,459.1 295.40000000000003,462.0 295.6,462.0 C 296.8,462.0 295.6,459.6 292.8,456.5 C 286.2,448.9 267.0,437.9 249.70000000000002,431.7 C 248.00000000000003,431.0 248.00000000000003,430.8 250.20000000000002,427.8 C 251.9,425.3 252.50000000000003,423.1 252.50000000000003,419.2 C 252.50000000000003,414.59999999999997 252.10000000000002,413.5 249.70000000000002,411.4 C 248.20000000000002,410.09999999999997 246.60000000000002,409.0 246.20000000000002,409.0 C 245.8,409.0 245.60000000000002,411.1 245.9,413.6 C 246.4,420.40000000000003 244.8,420.90000000000003 241.0,415.1 C 236.1,407.3 235.7,400.20000000000005 240.1,394.70000000000005 C 243.2,390.70000000000005 245.4,391.20000000000005 247.5,396.50000000000006 L 247.5,396.49999999999994" fill="none" stroke="#000000" stroke-width="0.7092003772723456"/>
	<path d="M 511.2,412.3999999999999 C 518.5,418.5999999999999 530.4,420.7999999999999 539.5,417.49999999999994 C 541.7,416.69999999999993 543.6,415.99999999999994 543.7,415.99999999999994 C 544.4000000000001,415.99999999999994 535.7,430.19999999999993 530.6,437.29999999999995 C 508.40000000000003,468.4 478.1,491.69999999999993 441.0,506.29999999999995 C 424.6,512.8 422.0,513.0 432.2,507.19999999999993 C 449.0,497.5999999999999 463.5,485.99999999999994 473.8,473.99999999999994 C 487.5,457.8999999999999 497.8,439.09999999999997 502.6,421.29999999999995 C 506.0,408.59999999999997 505.8,408.99999999999994 506.6,408.99999999999994 C 506.90000000000003,408.99999999999994 509.0,410.59999999999997 511.20000000000005,412.3999999999999 L 511.2,412.3999999999999" fill="none" stroke="#000000" stroke-width="0.7092003772723456"/>
	<path d="M 503.9,502.29999999999995 C 486.59999999999997,518.3 446.7,537.8 416.4,545.0 C 383.09999999999997,552.9 353.4,551.1 337.9,540.4 C 334.5,538.1 331.0,534.1 331.0,532.5 C 331.0,532.2 345.5,532.1 363.3,532.2 C 395.3,532.5 395.6,532.5 409.0,529.7 C 442.2,522.7 472.6,509.00000000000006 499.3,488.90000000000003 L 509.5,481.20000000000005 L 509.8,488.90000000000003 L 510.1,496.50000000000006 L 503.9,502.29999999999995" fill="none" stroke="#000000" stroke-width="0.7092003772723456"/>
	<path d="M 526.3,515.5 C 530.5,518.7 534.0,521.6 534.0,522.0 C 534.0,522.3 531.9,523.2 529.3,523.9 C 514.8,527.6999999999999 498.69999999999993,537.1999999999999 473.49999999999994,556.6 C 463.8999999999999,564.0 450.59999999999997,573.6 443.79999999999995,578.1 C 420.19999999999993,593.5 392.69999999999993,604.8000000000001 369.4,608.5 L 358.29999999999995,610.3 L 352.49999999999994,607.5999999999999 C 340.19999999999993,601.9999999999999 325.09999999999997,588.4999999999999 315.99999999999994,574.9999999999999 C 311.59999999999997,568.4999999999999 305.99999999999994,554.5999999999999 305.99999999999994,549.9999999999999 C 305.99999999999994,548.0999999999999 307.3999999999999,546.5999999999999 312.09999999999997,543.2999999999998 L 318.29999999999995,539.0999999999998 L 320.4,541.7999999999998 C 343.4,571.0999999999998 409.0,569.5999999999998 471.2,538.3999999999999 C 483.2,532.3999999999999 495.4,524.7999999999998 507.0,516.0999999999999 C 512.2,512.1999999999999 516.9,509.0999999999999 517.5,509.3999999999999 C 518.0,509.5999999999999 522.0,512.3999999999999 526.3,515.4999999999999 L 526.3,515.5" fill="none" stroke="#000000" stroke-width="0.7092003772723456"/>
	<path d="M 565.0999999999999,534.8 C 572.4999999999999,536.9 578.5999999999999,540.0999999999999 584.3999999999999,545.1999999999999 L 588.3999999999999,548.6999999999999 L 585.5999999999999,553.4 C 576.8999999999999,568.3 553.1999999999999,596.1 535.0999999999999,612.6 C 520.3999999999999,626.2 499.0999999999999,643.2 497.69999999999993,642.7 C 495.79999999999995,642.1 491.0999999999999,625.7 490.19999999999993,616.1 C 487.49999999999994,589.4 496.69999999999993,562.0 513.3,547.5 C 527.0,535.5 548.5,530.2 565.0999999999999,534.8" fill="none" stroke="#000000" stroke-width="0.7092003772723456"/>
	<path d="M 297.7999999999999,568.6999999999999 C 306.8999999999999,590.6999999999999 331.1999999999999,614.6999999999999 352.1999999999999,622.4999999999999 C 356.39999999999986,623.9999999999999 357.89999999999986,624.0999999999999 365.1999999999999,623.0999999999999 C 403.09999999999985,617.6999999999999 439.79999999999984,600.3 477.79999999999984,569.6999999999999 C 481.6999999999998,566.4999999999999 484.99999999999983,563.9999999999999 484.99999999999983,564.3 C 484.99999999999983,564.5 483.8999999999998,567.9 482.49999999999983,572.0 C 478.49999999999983,583.7 476.99999999999983,593.0 476.99999999999983,605.8 C 476.99999999999983,619.5999999999999 478.79999999999984,630.6999999999999 483.1999999999998,643.3 C 484.79999999999984,648.1999999999999 486.0999999999998,652.3 485.8999999999998,652.4 C 485.6999999999998,652.6 480.2999999999998,656.0 473.99999999999983,660.0 C 451.6999999999998,674.3 421.3999999999998,689.4 397.79999999999984,698.1 L 387.09999999999985,702.0 L 376.6999999999999,698.1 C 349.2999999999999,687.8000000000001 319.09999999999985,672.4 294.89999999999986,656.4 C 280.89999999999986,647.1999999999999 262.29999999999984,633.1999999999999 261.59999999999985,631.5 C 260.29999999999984,628.1 275.99999999999983,590.9 284.59999999999985,577.0 C 293.29999999999984,562.8 294.39999999999986,561.1 294.59999999999985,561.3 C 294.6999999999999,561.4 296.09999999999985,564.8 297.79999999999984,568.6999999999999 L 297.7999999999999,568.6999999999999" fill="none" stroke="#000000" stroke-width="0.7092003772723456"/>
</svg>
